<svg width="29" height="30" viewBox="0 0 29 30" fill="none" xmlns="http://www.w3.org/2000/svg">
<path d="M9.75 9.41666C9.04688 9.41666 8.46094 9.06509 8.10938 8.47916C7.75781 7.93228 7.75781 7.19009 8.10938 6.60416C8.46094 6.05728 9.04688 5.66666 9.75 5.66666C10.4141 5.66666 11 6.05728 11.3516 6.60416C11.7031 7.19009 11.7031 7.93228 11.3516 8.47916C11 9.06509 10.4141 9.41666 9.75 9.41666ZM9.20312 12.5417C9.16406 12.5417 9.125 12.5807 9.125 12.5807V17.5417H10.375V12.5807C10.3359 12.5417 10.2969 12.5417 10.2578 12.5417H9.20312ZM9.125 24.7292C9.125 25.276 8.69531 25.6667 8.1875 25.6667C7.64062 25.6667 7.25 25.276 7.25 24.7292V14.4167L5.53125 17.3854C5.29688 17.8542 4.71094 18.0104 4.28125 17.737C3.8125 17.5026 3.65625 16.9167 3.92969 16.487L6.19531 12.4245C6.82031 11.3698 7.95312 10.6667 9.20312 10.6667H10.2578C11.5078 10.6667 12.6406 11.3698 13.2656 12.4245L15.5312 16.487C15.8047 16.9167 15.6484 17.5026 15.1797 17.737C14.75 18.0104 14.1641 17.8542 13.9297 17.3854L12.25 14.4167V24.7292C12.25 25.276 11.8203 25.6667 11.3125 25.6667C10.7656 25.6667 10.375 25.276 10.375 24.7292V19.4167H9.125V24.7292ZM22.25 9.41666C21.5469 9.41666 20.9609 9.06509 20.6094 8.47916C20.2578 7.93228 20.2578 7.19009 20.6094 6.60416C20.9609 6.05728 21.5469 5.66666 22.25 5.66666C22.9141 5.66666 23.5 6.05728 23.8516 6.60416C24.2031 7.19009 24.2031 7.93228 23.8516 8.47916C23.5 9.06509 22.9141 9.41666 22.25 9.41666ZM26.4297 17.3854L24.5547 14.1042L26.3516 19.8854C26.4688 20.276 26.1953 20.6667 25.7656 20.6667H24.75V24.7292C24.75 25.276 24.3203 25.6667 23.8125 25.6667C23.2656 25.6667 22.875 25.276 22.875 24.7292V20.6667H21.625V24.7292C21.625 25.276 21.1953 25.6667 20.6875 25.6667C20.1406 25.6667 19.75 25.276 19.75 24.7292V20.6667H18.6953C18.3047 20.6667 17.9922 20.276 18.1094 19.8854L19.9062 14.1042L18.0312 17.3854C17.7969 17.8542 17.2109 18.0104 16.7812 17.737C16.3125 17.5026 16.1562 16.9167 16.4297 16.487L18.4219 12.8932C19.2031 11.526 20.6484 10.7057 22.25 10.7057C23.8125 10.7057 25.2578 11.526 26.0391 12.8932L28.0312 16.487C28.3047 16.9167 28.1484 17.5026 27.6797 17.737C27.25 18.0104 26.6641 17.8542 26.4297 17.3854ZM24.0469 18.7917L22.25 12.9713L20.4141 18.7917H24.0469Z" fill="#F5F5F5"/>
</svg>
