<svg width="24" height="25" viewBox="0 0 24 25" fill="none" xmlns="http://www.w3.org/2000/svg">
<path d="M11.5 5.66666C11.5 6.56509 10.9922 7.38541 10.25 7.85416C9.46875 8.28384 8.49219 8.28384 7.75 7.85416C6.96875 7.38541 6.5 6.56509 6.5 5.66666C6.5 4.80728 6.96875 3.98697 7.75 3.51822C8.49219 3.08853 9.46875 3.08853 10.25 3.51822C10.9922 3.98697 11.5 4.80728 11.5 5.66666ZM8.10156 11.2917C7.47656 11.2917 6.92969 11.7995 6.85156 12.4635L6.69531 14.3776C6.65625 14.7292 6.96875 15.0417 7.32031 15.0417H7.4375H9.78125C9.66406 15.4713 9.625 15.862 9.625 16.2917V16.9167H8.375V22.2292C8.375 22.776 7.94531 23.1667 7.4375 23.1667C6.89062 23.1667 6.5 22.776 6.5 22.2292V16.7995C5.44531 16.4088 4.74219 15.3932 4.82031 14.2213L4.97656 12.3073C5.13281 10.6667 6.5 9.41666 8.10156 9.41666H9.85938C10.2109 9.41666 10.5625 9.49478 10.875 9.61197C10.875 9.76822 10.875 9.92447 10.875 10.0417C10.875 10.5104 10.9531 10.9401 11.1094 11.2917H9.85938H9H8.10156ZM17.125 10.0417C17.125 9.96353 17.0859 9.88541 17.0859 9.76822C17.4766 9.57291 17.9062 9.41666 18.375 9.41666H19.5859C20.7188 9.41666 21.6953 10.1588 22.0078 11.2526L23.5312 16.6042C23.7656 17.3854 23.1406 18.1667 22.3203 18.1667H21.5V22.2292C21.5 22.776 21.0703 23.1667 20.5625 23.1667C20.0156 23.1667 19.625 22.776 19.625 22.2292V18.1667H18.1406C18.2969 17.776 18.375 17.3854 18.375 16.9167V16.2917H21.5L20.2109 11.7604C20.1328 11.487 19.8594 11.2917 19.5859 11.2917H19H18.375H16.8516C17.0078 10.9401 17.125 10.5104 17.125 10.0417ZM21.5 5.66666C21.5 6.56509 20.9922 7.38541 20.25 7.85416C19.4688 8.28384 18.4922 8.28384 17.75 7.85416C16.9688 7.38541 16.5 6.56509 16.5 5.66666C16.5 4.80728 16.9688 3.98697 17.75 3.51822C18.4922 3.08853 19.4688 3.08853 20.25 3.51822C20.9922 3.98697 21.5 4.80728 21.5 5.66666ZM14 11.9167C13.2969 11.9167 12.7109 11.5651 12.3594 10.9792C12.0078 10.4323 12.0078 9.69009 12.3594 9.10416C12.7109 8.55728 13.2969 8.16666 14 8.16666C14.6641 8.16666 15.25 8.55728 15.6016 9.10416C15.9531 9.69009 15.9531 10.4323 15.6016 10.9792C15.25 11.5651 14.6641 11.9167 14 11.9167ZM15.25 16.2917C15.25 15.6276 14.6641 15.0417 14 15.0417C13.2969 15.0417 12.75 15.6276 12.75 16.2917V16.9167C12.75 17.2682 13.0234 17.5417 13.375 17.5417H14H14.625C14.9375 17.5417 15.25 17.2682 15.25 16.9167V16.2917ZM17.125 16.9167C17.125 17.8542 16.5781 18.6745 15.8359 19.1042C15.8359 19.2213 15.875 19.3385 15.875 19.4167V21.9167C15.875 22.6198 15.2891 23.1667 14.625 23.1667H13.375C12.6719 23.1667 12.125 22.6198 12.125 21.9167V19.4167C12.125 19.3385 12.125 19.2213 12.125 19.1042C11.3828 18.6745 10.875 17.8542 10.875 16.9167V16.2917C10.875 14.5729 12.2422 13.1667 14 13.1667C15.7188 13.1667 17.125 14.5729 17.125 16.2917V16.9167Z" fill="#F5F5F5"/>
</svg>
