<svg width="24" height="25" viewBox="0 0 24 25" fill="none" xmlns="http://www.w3.org/2000/svg">
<path d="M10.375 5.04166C10.375 4.37759 10.7266 3.79166 11.3125 3.44009C11.8594 3.08853 12.6016 3.08853 13.1875 3.44009C13.7344 3.79166 14.125 4.37759 14.125 5.04166C14.125 5.74478 13.7344 6.33072 13.1875 6.68228C12.6016 7.03384 11.8594 7.03384 11.3125 6.68228C10.7266 6.33072 10.375 5.74478 10.375 5.04166ZM11.625 10.0807V15.0417H12.875V10.0807C12.8359 10.0807 12.7969 10.0417 12.7578 10.0417H11.7031C11.6641 10.0417 11.625 10.0417 11.625 10.0807ZM11.625 16.9167V22.2292C11.625 22.776 11.1953 23.1667 10.6875 23.1667C10.1406 23.1667 9.75 22.776 9.75 22.2292V11.9167L8.03125 14.8854C7.79688 15.3542 7.21094 15.5104 6.78125 15.237C6.3125 15.0026 6.15625 14.4167 6.42969 13.987L8.69531 9.92447C9.32031 8.86978 10.4531 8.16666 11.7031 8.16666H12.7578C14.0078 8.16666 15.1406 8.86978 15.7656 9.92447L18.0312 13.987C18.3047 14.4167 18.1484 15.0026 17.6797 15.237C17.25 15.5104 16.6641 15.3542 16.4297 14.8854L14.75 11.9167V22.2292C14.75 22.776 14.3203 23.1667 13.8125 23.1667C13.2656 23.1667 12.875 22.776 12.875 22.2292V16.9167H11.625Z" fill="#0B0809"/>
</svg>
